<?xml version="1.0"?>
<svg xmlns="http://www.w3.org/2000/svg" xmlns:xlink="http://www.w3.org/1999/xlink" xmlns:svgjs="http://svgjs.com/svgjs" version="1.1" width="512" height="512" x="0" y="0" viewBox="0 0 192 192" style="enable-background:new 0 0 512 512" xml:space="preserve"><g><path xmlns="http://www.w3.org/2000/svg" d="m165.657 114.343-11.314 11.314 10.343 10.343h-32.909a23.868 23.868 0 0 1 -21.466-13.268l-13.367-26.732 13.367-26.732a23.868 23.868 0 0 1 21.466-13.268h32.909l-10.343 10.343 11.314 11.314 24-24a8 8 0 0 0 0-11.314l-24-24-11.314 11.314 10.343 10.343h-32.909a39.782 39.782 0 0 0 -35.777 22.111l-8 16-8-16a39.782 39.782 0 0 0 -35.777-22.111h-44.223v16h44.223a23.868 23.868 0 0 1 21.466 13.268l13.367 26.732-13.367 26.732a23.868 23.868 0 0 1 -21.466 13.268h-44.223v16h44.223a39.782 39.782 0 0 0 35.777-22.111l8-16 8 16a39.782 39.782 0 0 0 35.777 22.111h32.909l-10.343 10.343 11.314 11.314 24-24a8 8 0 0 0 0-11.314z" fill="#b3b3b3" data-original="#000000" style=""/></g></svg>
